<svg width="27" height="28" viewBox="0 0 27 28" fill="none" xmlns="http://www.w3.org/2000/svg">
<path fill-rule="evenodd" clip-rule="evenodd" d="M13.2295 2.80328C7.31196 2.80328 2.50928 7.8341 2.50928 14.0328C2.50928 20.2315 7.31196 25.2623 13.2295 25.2623C19.1471 25.2623 23.9498 20.2315 23.9498 14.0328C23.9498 7.8341 19.1471 2.80328 13.2295 2.80328ZM7.94445 21.0849C8.40542 20.0743 11.2141 19.0861 13.2295 19.0861C15.245 19.0861 18.0644 20.0743 18.5146 21.0849C17.0567 22.2977 15.2235 23.0164 13.2295 23.0164C11.2356 23.0164 9.40241 22.2977 7.94445 21.0849ZM20.0476 19.4566C18.5146 17.5027 14.7947 16.8402 13.2295 16.8402C11.6644 16.8402 7.94445 17.5027 6.41145 19.4566C5.31799 17.9519 4.65333 16.0766 4.65333 14.0328C4.65333 9.08058 8.50191 5.04919 13.2295 5.04919C17.9572 5.04919 21.8058 9.08058 21.8058 14.0328C21.8058 16.0766 21.1411 17.9519 20.0476 19.4566ZM13.2295 7.29509C11.1498 7.29509 9.47745 9.04689 9.47745 11.2254C9.47745 13.4039 11.1498 15.1557 13.2295 15.1557C15.3093 15.1557 16.9816 13.4039 16.9816 11.2254C16.9816 9.04689 15.3093 7.29509 13.2295 7.29509ZM13.2295 12.9098C12.3398 12.9098 11.6215 12.1575 11.6215 11.2254C11.6215 10.2934 12.3398 9.54099 13.2295 9.54099C14.1193 9.54099 14.8376 10.2934 14.8376 11.2254C14.8376 12.1575 14.1193 12.9098 13.2295 12.9098Z" fill="#354147"/>
<mask id="mask0_8313_488" style="mask-type:luminance" maskUnits="userSpaceOnUse" x="2" y="2" width="22" height="24">
<path fill-rule="evenodd" clip-rule="evenodd" d="M13.2295 2.80328C7.31196 2.80328 2.50928 7.8341 2.50928 14.0328C2.50928 20.2315 7.31196 25.2623 13.2295 25.2623C19.1471 25.2623 23.9498 20.2315 23.9498 14.0328C23.9498 7.8341 19.1471 2.80328 13.2295 2.80328ZM7.94445 21.0849C8.40542 20.0743 11.2141 19.0861 13.2295 19.0861C15.245 19.0861 18.0644 20.0743 18.5146 21.0849C17.0567 22.2977 15.2235 23.0164 13.2295 23.0164C11.2356 23.0164 9.40241 22.2977 7.94445 21.0849ZM20.0476 19.4566C18.5146 17.5027 14.7947 16.8402 13.2295 16.8402C11.6644 16.8402 7.94445 17.5027 6.41145 19.4566C5.31799 17.9519 4.65333 16.0766 4.65333 14.0328C4.65333 9.08058 8.50191 5.04919 13.2295 5.04919C17.9572 5.04919 21.8058 9.08058 21.8058 14.0328C21.8058 16.0766 21.1411 17.9519 20.0476 19.4566ZM13.2295 7.29509C11.1498 7.29509 9.47745 9.04689 9.47745 11.2254C9.47745 13.4039 11.1498 15.1557 13.2295 15.1557C15.3093 15.1557 16.9816 13.4039 16.9816 11.2254C16.9816 9.04689 15.3093 7.29509 13.2295 7.29509ZM13.2295 12.9098C12.3398 12.9098 11.6215 12.1575 11.6215 11.2254C11.6215 10.2934 12.3398 9.54099 13.2295 9.54099C14.1193 9.54099 14.8376 10.2934 14.8376 11.2254C14.8376 12.1575 14.1193 12.9098 13.2295 12.9098Z" fill="white"/>
</mask>
<g mask="url(#mask0_8313_488)">
</g>
</svg>
