<svg width="143" height="50" viewBox="0 0 143 50" fill="none" xmlns="http://www.w3.org/2000/svg">
<g clip-path="url(#clip0_8313_530)">
<path d="M35.76 8.68V9.48C34.9067 9.50667 34.2667 9.61333 33.84 9.8C33.4133 9.96 33.12 10.28 32.96 10.76C32.8267 11.2133 32.76 11.9333 32.76 12.92V32.76C32.76 33.72 32.8267 34.44 32.96 34.92C33.12 35.4 33.4133 35.72 33.84 35.88C34.2667 36.04 34.9067 36.1467 35.76 36.2V37C35.0133 36.9467 34.0667 36.92 32.92 36.92C31.8 36.8933 30.6533 36.88 29.48 36.88C28.2 36.88 27 36.8933 25.88 36.92C24.76 36.92 23.8533 36.9467 23.16 37V36.2C24.0667 36.1467 24.7467 36.04 25.2 35.88C25.68 35.72 26 35.4 26.16 34.92C26.32 34.44 26.4 33.72 26.4 32.76V11.12H26.68L16.76 37.04H16.12L5.32 11.28V30.44C5.32 31.9067 5.4 33.04 5.56 33.84C5.72 34.6133 6.06667 35.1733 6.6 35.52C7.16 35.84 8.02667 36.0667 9.2 36.2V37C8.69333 36.9467 8.02667 36.92 7.2 36.92C6.37333 36.8933 5.6 36.88 4.88 36.88C4.26667 36.88 3.64 36.8933 3 36.92C2.36 36.92 1.82667 36.9467 1.4 37V36.2C2.25333 36.0667 2.89333 35.84 3.32 35.52C3.74667 35.2 4.02667 34.68 4.16 33.96C4.32 33.2133 4.4 32.2 4.4 30.92V12.92C4.4 11.9333 4.32 11.2133 4.16 10.76C4.02667 10.28 3.73333 9.96 3.28 9.8C2.85333 9.61333 2.22667 9.50667 1.4 9.48V8.68C1.82667 8.70667 2.36 8.73333 3 8.76C3.64 8.78667 4.26667 8.8 4.88 8.8C6.02667 8.8 7.14667 8.78667 8.24 8.76C9.36 8.73333 10.3467 8.70667 11.2 8.68L19.6 28.96L18.6 29.88L26.64 8.8C27.0933 8.8 27.56 8.8 28.04 8.8C28.52 8.8 29 8.8 29.48 8.8C30.6533 8.8 31.8 8.78667 32.92 8.76C34.0667 8.73333 35.0133 8.70667 35.76 8.68Z" fill="white"/>
<path d="M68.72 8.68V9.48C67.8667 9.58667 67.2267 9.81333 66.8 10.16C66.3733 10.48 66.08 11 65.92 11.72C65.7867 12.44 65.72 13.4533 65.72 14.76V37.08C65.4 37.0533 65.0667 37.04 64.72 37.04C64.4 37.04 64.0533 37.0533 63.68 37.08L46.32 15.08V30.44C46.32 31.9067 46.4 33.04 46.56 33.84C46.72 34.6133 47.0667 35.1733 47.6 35.52C48.16 35.84 49.0267 36.0667 50.2 36.2V37C49.6933 36.9467 49.0267 36.92 48.2 36.92C47.3733 36.8933 46.6 36.88 45.88 36.88C45.2667 36.88 44.64 36.8933 44 36.92C43.36 36.92 42.8267 36.9467 42.4 37V36.2C43.2533 36.0667 43.8933 35.84 44.32 35.52C44.7467 35.2 45.0267 34.68 45.16 33.96C45.32 33.2133 45.4 32.2 45.4 30.92V12.92C45.4 11.9333 45.32 11.2133 45.16 10.76C45.0267 10.28 44.7333 9.96 44.28 9.8C43.8533 9.61333 43.2267 9.50667 42.4 9.48V8.68C42.8267 8.70667 43.36 8.73333 44 8.76C44.64 8.78667 45.2667 8.8 45.88 8.8C46.52 8.8 47.1333 8.78667 47.72 8.76C48.3067 8.73333 48.84 8.70667 49.32 8.68L64.8 27.76V15.24C64.8 13.7733 64.72 12.6533 64.56 11.88C64.4 11.08 64.04 10.5067 63.48 10.16C62.9467 9.81333 62.0933 9.58667 60.92 9.48V8.68C61.4267 8.70667 62.0933 8.73333 62.92 8.76C63.7467 8.78667 64.52 8.8 65.24 8.8C65.88 8.8 66.5067 8.78667 67.12 8.76C67.76 8.73333 68.2933 8.70667 68.72 8.68Z" fill="white"/>
<path d="M100.68 8.68C100.573 10.04 100.493 11.3467 100.44 12.6C100.413 13.8533 100.4 14.8133 100.4 15.48C100.4 16.0667 100.413 16.6267 100.44 17.16C100.467 17.6933 100.493 18.1467 100.52 18.52H99.6C99.1733 16.28 98.6267 14.5067 97.96 13.2C97.32 11.8933 96.5467 10.9733 95.64 10.44C94.7333 9.88 93.6667 9.6 92.44 9.6H91.52V32.44C91.52 33.5067 91.6267 34.3067 91.84 34.84C92.08 35.3733 92.5067 35.7333 93.12 35.92C93.7333 36.08 94.6267 36.1733 95.8 36.2V37C94.9733 36.9733 93.8667 36.9467 92.48 36.92C91.12 36.8933 89.6933 36.88 88.2 36.88C86.7333 36.88 85.3467 36.8933 84.04 36.92C82.7333 36.9467 81.68 36.9733 80.88 37V36.2C82.08 36.1733 82.9867 36.08 83.6 35.92C84.2133 35.7333 84.6267 35.3733 84.84 34.84C85.0533 34.3067 85.16 33.5067 85.16 32.44V9.6H84.28C83.0533 9.6 81.9867 9.88 81.08 10.44C80.1733 10.9733 79.4 11.8933 78.76 13.2C78.12 14.48 77.56 16.2533 77.08 18.52H76.16C76.2133 18.1467 76.24 17.6933 76.24 17.16C76.2667 16.6267 76.28 16.0667 76.28 15.48C76.28 14.8133 76.2533 13.8533 76.2 12.6C76.1733 11.3467 76.1067 10.04 76 8.68C77.2267 8.70667 78.56 8.73333 80 8.76C81.4667 8.78667 82.9333 8.8 84.4 8.8C85.8667 8.8 87.1867 8.8 88.36 8.8C89.56 8.8 90.88 8.8 92.32 8.8C93.7867 8.8 95.2533 8.78667 96.72 8.76C98.1867 8.73333 99.5067 8.70667 100.68 8.68Z" fill="white"/>
<path d="M133.72 8.68V9.48C132.867 9.58667 132.227 9.81333 131.8 10.16C131.373 10.48 131.08 11 130.92 11.72C130.787 12.44 130.72 13.4533 130.72 14.76V37.08C130.4 37.0533 130.067 37.04 129.72 37.04C129.4 37.04 129.053 37.0533 128.68 37.08L111.32 15.08V30.44C111.32 31.9067 111.4 33.04 111.56 33.84C111.72 34.6133 112.067 35.1733 112.6 35.52C113.16 35.84 114.027 36.0667 115.2 36.2V37C114.693 36.9467 114.027 36.92 113.2 36.92C112.373 36.8933 111.6 36.88 110.88 36.88C110.267 36.88 109.64 36.8933 109 36.92C108.36 36.92 107.827 36.9467 107.4 37V36.2C108.253 36.0667 108.893 35.84 109.32 35.52C109.747 35.2 110.027 34.68 110.16 33.96C110.32 33.2133 110.4 32.2 110.4 30.92V12.92C110.4 11.9333 110.32 11.2133 110.16 10.76C110.027 10.28 109.733 9.96 109.28 9.8C108.853 9.61333 108.227 9.50667 107.4 9.48V8.68C107.827 8.70667 108.36 8.73333 109 8.76C109.64 8.78667 110.267 8.8 110.88 8.8C111.52 8.8 112.133 8.78667 112.72 8.76C113.307 8.73333 113.84 8.70667 114.32 8.68L129.8 27.76V15.24C129.8 13.7733 129.72 12.6533 129.56 11.88C129.4 11.08 129.04 10.5067 128.48 10.16C127.947 9.81333 127.093 9.58667 125.92 9.48V8.68C126.427 8.70667 127.093 8.73333 127.92 8.76C128.747 8.78667 129.52 8.8 130.24 8.8C130.88 8.8 131.507 8.78667 132.12 8.76C132.76 8.73333 133.293 8.70667 133.72 8.68Z" fill="white"/>
</g>
<defs>
<clipPath id="clip0_8313_530">
<rect width="143" height="50" fill="white"/>
</clipPath>
</defs>
</svg>
