<svg width="138" height="41" viewBox="0 0 138 41" fill="none" xmlns="http://www.w3.org/2000/svg">
<path d="M32.0717 10.22V10.92C31.3251 10.9433 30.7651 11.0367 30.3917 11.2C30.0184 11.34 29.7617 11.62 29.6217 12.04C29.5051 12.4367 29.4467 13.0667 29.4467 13.93V31.29C29.4467 32.13 29.5051 32.76 29.6217 33.18C29.7617 33.6 30.0184 33.88 30.3917 34.02C30.7651 34.16 31.3251 34.2533 32.0717 34.3V35C31.4184 34.9533 30.5901 34.93 29.5867 34.93C28.6067 34.9067 27.6034 34.895 26.5767 34.895C25.4567 34.895 24.4067 34.9067 23.4267 34.93C22.4467 34.93 21.6534 34.9533 21.0467 35V34.3C21.8401 34.2533 22.4351 34.16 22.8317 34.02C23.2517 33.88 23.5317 33.6 23.6717 33.18C23.8117 32.76 23.8817 32.13 23.8817 31.29V12.355H24.1267L15.4467 35.035H14.8867L5.43674 12.495V29.26C5.43674 30.5433 5.50674 31.535 5.64674 32.235C5.78674 32.9117 6.09007 33.4017 6.55674 33.705C7.04674 33.985 7.80507 34.1833 8.83174 34.3V35C8.38841 34.9533 7.80507 34.93 7.08174 34.93C6.35841 34.9067 5.68174 34.895 5.05174 34.895C4.51507 34.895 3.96674 34.9067 3.40674 34.93C2.84674 34.93 2.38007 34.9533 2.00674 35V34.3C2.7534 34.1833 3.31341 33.985 3.68674 33.705C4.06007 33.425 4.30507 32.97 4.42174 32.34C4.56174 31.6867 4.63174 30.8 4.63174 29.68V13.93C4.63174 13.0667 4.56174 12.4367 4.42174 12.04C4.30507 11.62 4.04841 11.34 3.65174 11.2C3.2784 11.0367 2.73007 10.9433 2.00674 10.92V10.22C2.38007 10.2433 2.84674 10.2667 3.40674 10.29C3.96674 10.3133 4.51507 10.325 5.05174 10.325C6.05507 10.325 7.03507 10.3133 7.99174 10.29C8.97174 10.2667 9.83507 10.2433 10.5817 10.22L17.9317 27.965L17.0567 28.77L24.0917 10.325C24.4884 10.325 24.8967 10.325 25.3167 10.325C25.7367 10.325 26.1567 10.325 26.5767 10.325C27.6034 10.325 28.6067 10.3133 29.5867 10.29C30.5901 10.2667 31.4184 10.2433 32.0717 10.22Z" fill="white"/>
<path d="M63.1256 10.22V10.92C62.3789 11.0133 61.8189 11.2117 61.4456 11.515C61.0723 11.795 60.8156 12.25 60.6756 12.88C60.5589 13.51 60.5006 14.3967 60.5006 15.54V35.07C60.2206 35.0467 59.9289 35.035 59.6256 35.035C59.3456 35.035 59.0423 35.0467 58.7156 35.07L43.5256 15.82V29.26C43.5256 30.5433 43.5956 31.535 43.7356 32.235C43.8756 32.9117 44.1789 33.4017 44.6456 33.705C45.1356 33.985 45.8939 34.1833 46.9206 34.3V35C46.4773 34.9533 45.8939 34.93 45.1706 34.93C44.4473 34.9067 43.7706 34.895 43.1406 34.895C42.6039 34.895 42.0556 34.9067 41.4956 34.93C40.9356 34.93 40.4689 34.9533 40.0956 35V34.3C40.8423 34.1833 41.4023 33.985 41.7756 33.705C42.1489 33.425 42.3939 32.97 42.5106 32.34C42.6506 31.6867 42.7206 30.8 42.7206 29.68V13.93C42.7206 13.0667 42.6506 12.4367 42.5106 12.04C42.3939 11.62 42.1373 11.34 41.7406 11.2C41.3673 11.0367 40.8189 10.9433 40.0956 10.92V10.22C40.4689 10.2433 40.9356 10.2667 41.4956 10.29C42.0556 10.3133 42.6039 10.325 43.1406 10.325C43.7006 10.325 44.2373 10.3133 44.7506 10.29C45.2639 10.2667 45.7306 10.2433 46.1506 10.22L59.6956 26.915V15.96C59.6956 14.6767 59.6256 13.6967 59.4856 13.02C59.3456 12.32 59.0306 11.8183 58.5406 11.515C58.0739 11.2117 57.3273 11.0133 56.3006 10.92V10.22C56.7439 10.2433 57.3273 10.2667 58.0506 10.29C58.7739 10.3133 59.4506 10.325 60.0806 10.325C60.6406 10.325 61.1889 10.3133 61.7256 10.29C62.2856 10.2667 62.7523 10.2433 63.1256 10.22Z" fill="white"/>
<path d="M93.2805 10.22C93.1872 11.41 93.1172 12.5533 93.0705 13.65C93.0472 14.7467 93.0355 15.5867 93.0355 16.17C93.0355 16.6833 93.0472 17.1733 93.0705 17.64C93.0939 18.1067 93.1172 18.5033 93.1405 18.83H92.3355C91.9622 16.87 91.4839 15.3183 90.9005 14.175C90.3405 13.0317 89.6639 12.2267 88.8705 11.76C88.0772 11.27 87.1439 11.025 86.0705 11.025H85.2655V31.01C85.2655 31.9433 85.3589 32.6433 85.5455 33.11C85.7555 33.5767 86.1289 33.8917 86.6655 34.055C87.2022 34.195 87.9839 34.2767 89.0105 34.3V35C88.2872 34.9767 87.3189 34.9533 86.1055 34.93C84.9155 34.9067 83.6672 34.895 82.3605 34.895C81.0772 34.895 79.8639 34.9067 78.7205 34.93C77.5772 34.9533 76.6555 34.9767 75.9555 35V34.3C77.0055 34.2767 77.7989 34.195 78.3355 34.055C78.8722 33.8917 79.2339 33.5767 79.4205 33.11C79.6072 32.6433 79.7005 31.9433 79.7005 31.01V11.025H78.9305C77.8572 11.025 76.9239 11.27 76.1305 11.76C75.3372 12.2267 74.6605 13.0317 74.1005 14.175C73.5405 15.295 73.0505 16.8467 72.6305 18.83H71.8255C71.8722 18.5033 71.8955 18.1067 71.8955 17.64C71.9189 17.1733 71.9305 16.6833 71.9305 16.17C71.9305 15.5867 71.9072 14.7467 71.8605 13.65C71.8372 12.5533 71.7789 11.41 71.6855 10.22C72.7589 10.2433 73.9255 10.2667 75.1855 10.29C76.4689 10.3133 77.7522 10.325 79.0355 10.325C80.3189 10.325 81.4739 10.325 82.5005 10.325C83.5505 10.325 84.7055 10.325 85.9655 10.325C87.2489 10.325 88.5322 10.3133 89.8155 10.29C91.0989 10.2667 92.2539 10.2433 93.2805 10.22Z" fill="white"/>
<path d="M125.626 10.22V10.92C124.879 11.0133 124.319 11.2117 123.946 11.515C123.572 11.795 123.316 12.25 123.176 12.88C123.059 13.51 123.001 14.3967 123.001 15.54V35.07C122.721 35.0467 122.429 35.035 122.126 35.035C121.846 35.035 121.542 35.0467 121.216 35.07L106.026 15.82V29.26C106.026 30.5433 106.096 31.535 106.236 32.235C106.376 32.9117 106.679 33.4017 107.146 33.705C107.636 33.985 108.394 34.1833 109.421 34.3V35C108.977 34.9533 108.394 34.93 107.671 34.93C106.947 34.9067 106.271 34.895 105.641 34.895C105.104 34.895 104.556 34.9067 103.996 34.93C103.436 34.93 102.969 34.9533 102.596 35V34.3C103.342 34.1833 103.902 33.985 104.276 33.705C104.649 33.425 104.894 32.97 105.011 32.34C105.151 31.6867 105.221 30.8 105.221 29.68V13.93C105.221 13.0667 105.151 12.4367 105.011 12.04C104.894 11.62 104.637 11.34 104.241 11.2C103.867 11.0367 103.319 10.9433 102.596 10.92V10.22C102.969 10.2433 103.436 10.2667 103.996 10.29C104.556 10.3133 105.104 10.325 105.641 10.325C106.201 10.325 106.737 10.3133 107.251 10.29C107.764 10.2667 108.231 10.2433 108.651 10.22L122.196 26.915V15.96C122.196 14.6767 122.126 13.6967 121.986 13.02C121.846 12.32 121.531 11.8183 121.041 11.515C120.574 11.2117 119.827 11.0133 118.801 10.92V10.22C119.244 10.2433 119.827 10.2667 120.551 10.29C121.274 10.3133 121.951 10.325 122.581 10.325C123.141 10.325 123.689 10.3133 124.226 10.29C124.786 10.2667 125.252 10.2433 125.626 10.22Z" fill="white"/>
</svg>
